<svg width="149" height="28" viewBox="0 0 149 28" fill="none" xmlns="http://www.w3.org/2000/svg">
<path d="M0 0.674145H5.11532V22.6187H12.5689V27.486H0V0.674145Z" fill="#4F4F4F"/>
<path d="M29.9026 15.0911C29.5735 13.9854 28.9235 13.0866 27.9535 12.3939C26.9835 11.702 25.8579 11.3549 24.5769 11.3549C23.1868 11.3549 21.9659 11.744 20.9177 12.5214C20.2587 13.0079 19.6486 13.8639 19.0874 15.0911H29.9026ZM34.8901 19.0109H18.868C19.0994 20.4194 19.7178 21.5408 20.7223 22.3729C21.7269 23.205 23.0088 23.6218 24.5678 23.6218C26.4312 23.6218 28.0332 22.9719 29.3728 21.6713L33.5745 23.6398C32.5271 25.1225 31.2731 26.2192 29.8109 26.9299C28.3495 27.6405 26.6146 27.9958 24.6047 27.9958C21.4865 27.9958 18.9469 27.0146 16.9865 25.0521C15.0255 23.0903 14.0449 20.6323 14.0449 17.6795C14.0449 14.654 15.0225 12.142 16.9768 10.142C18.9318 8.14355 21.3828 7.1443 24.3304 7.1443C27.4606 7.1443 30.0063 8.14355 31.9673 10.142C33.9276 12.142 34.9082 14.7815 34.9082 18.0626L34.8901 19.0109Z" fill="#4F4F4F"/>
<path d="M47.4193 11.7384C45.8768 11.7384 44.5972 12.2818 43.5776 13.3695C42.5572 14.4572 42.0485 15.8508 42.0485 17.5524C42.0485 19.2653 42.5662 20.6754 43.6054 21.7803C44.643 22.8868 45.9196 23.4392 47.4366 23.4392C49.0025 23.4392 50.3016 22.8958 51.3332 21.8081C52.3648 20.7204 52.8818 19.2961 52.8818 17.5337C52.8818 15.8088 52.3648 14.4108 51.3332 13.3418C50.3016 12.2728 48.9972 11.7384 47.4193 11.7384ZM52.6631 7.65516H57.6492V27.4857H52.6631V25.3898C51.6886 26.3126 50.7126 26.9782 49.7335 27.3853C48.7545 27.7923 47.6921 27.9962 46.5492 27.9962C43.9826 27.9962 41.7623 27.0022 39.8891 25.0157C38.0152 23.0292 37.079 20.5599 37.079 17.6064C37.079 14.545 37.9851 12.0352 39.7974 10.0794C41.6112 8.12367 43.812 7.14466 46.4035 7.14466C47.5951 7.14466 48.7154 7.36955 49.7598 7.81857C50.8065 8.26835 51.7735 8.94301 52.6631 9.84256V7.65516Z" fill="#4F4F4F"/>
<path d="M70.2484 11.7384C68.7059 11.7384 67.4255 12.2818 66.4067 13.3695C65.3863 14.4573 64.8769 15.8508 64.8769 17.5524C64.8769 19.2653 65.3953 20.6754 66.4337 21.7803C67.4714 22.8868 68.7487 23.4392 70.2657 23.4392C71.8316 23.4392 73.1307 22.8958 74.1623 21.8081C75.1939 20.7204 75.7109 19.2961 75.7109 17.5337C75.7109 15.8088 75.1939 14.4108 74.1623 13.3418C73.1307 12.2728 71.8263 11.7384 70.2484 11.7384ZM75.4915 -5.72205e-06H80.4783V27.4857H75.4915V25.3898C74.5177 26.3126 73.5417 26.9782 72.5619 27.3853C71.5829 27.7923 70.5212 27.9962 69.3784 27.9962C66.8117 27.9962 64.5914 27.0022 62.7182 25.0157C60.8436 23.0292 59.9073 20.5599 59.9073 17.6064C59.9073 14.545 60.8135 12.0352 62.6266 10.0794C64.4396 8.12367 66.6404 7.14466 69.2318 7.14466C70.4243 7.14466 71.5438 7.36955 72.589 7.81858C73.6356 8.26835 74.6026 8.94301 75.4915 9.84256V-5.72205e-06Z" fill="#4F4F4F"/>
<path d="M95.3094 25.5355C96.731 25.5355 98.0436 25.1861 99.2458 24.4875C100.449 23.7888 101.406 22.8076 102.117 21.5437C102.828 20.2798 103.183 18.9433 103.183 17.534C103.183 16.1247 102.825 14.7813 102.108 13.5055C101.391 12.2304 100.428 11.2364 99.2187 10.5265C98.0098 9.81434 96.7189 9.45976 95.3462 9.45976C93.9479 9.45976 92.621 9.81434 91.3632 10.5265C90.1054 11.2364 89.1391 12.1936 88.4659 13.3968C87.7904 14.5992 87.4538 15.9545 87.4538 17.4613C87.4538 19.7574 88.2097 21.6779 89.7222 23.2206C91.2355 24.7641 93.0981 25.5355 95.3094 25.5355ZM85.0787 27.486V0.000249863H87.6364V11.0632C88.7071 9.75137 89.9055 8.77011 91.2317 8.12018C92.5579 7.47026 94.011 7.14492 95.5934 7.14492C98.4043 7.14492 100.804 8.16291 102.793 10.1981C104.783 12.2334 105.777 14.7034 105.777 17.6067C105.777 20.4747 104.774 22.923 102.766 24.9523C100.758 26.9815 98.3434 27.9957 95.5205 27.9957C93.9021 27.9957 92.4361 27.6494 91.1227 26.9567C89.8086 26.2648 88.6462 25.2259 87.6364 23.8398V27.486H85.0787Z" fill="#4F4F4F"/>
<path d="M118.9 9.6418C116.773 9.6418 114.945 10.4252 113.418 11.9934C111.89 13.5608 111.126 15.4559 111.126 17.68C111.126 19.1133 111.475 20.4506 112.171 21.689C112.868 22.9296 113.809 23.8862 114.995 24.5601C116.181 25.2347 117.482 25.5721 118.9 25.5721C120.318 25.5721 121.619 25.2347 122.805 24.5601C123.99 23.8862 124.931 22.9296 125.628 21.689C126.325 20.4506 126.673 19.1133 126.673 17.68C126.673 15.4559 125.906 13.5608 124.372 11.9934C122.838 10.4252 121.014 9.6418 118.9 9.6418ZM118.909 7.1448C121.971 7.1448 124.509 8.25125 126.522 10.4619C128.352 12.4791 129.268 14.8674 129.268 17.6253C129.268 20.3952 128.3 22.8165 126.367 24.8884C124.433 26.9604 121.947 27.9956 118.909 27.9956C115.858 27.9956 113.367 26.9604 111.433 24.8884C109.499 22.8165 108.532 20.3952 108.532 17.6253C108.532 14.8787 109.447 12.4979 111.277 10.4806C113.29 8.2565 115.834 7.1448 118.909 7.1448Z" fill="#4F4F4F"/>
<path d="M130.798 7.65491H133.868L139.154 14.9098L144.385 7.65491H147.46L140.694 17.023L148.318 27.4855H145.203L139.153 19.1571L133.138 27.4855H130.086L137.616 17.041L130.798 7.65491Z" fill="#4F4F4F"/>
</svg>
