<svg width="149" height="29" viewBox="0 0 149 29" fill="none" xmlns="http://www.w3.org/2000/svg">
<path d="M0 1.55165H5.11532V23.4962H12.5689V28.3635H0V1.55165Z" fill="white"/>
<path d="M29.9026 15.9687C29.5735 14.863 28.9235 13.9642 27.9535 13.2715C26.9835 12.5796 25.8579 12.2326 24.5769 12.2326C23.1868 12.2326 21.9659 12.6216 20.9177 13.399C20.2587 13.8855 19.6486 14.7416 19.0874 15.9687H29.9026ZM34.8901 19.8885H18.868C19.0994 21.297 19.7178 22.4185 20.7223 23.2505C21.7269 24.0826 23.0088 24.4994 24.5678 24.4994C26.4312 24.4994 28.0332 23.8495 29.3728 22.5489L33.5745 24.5174C32.5271 26.0002 31.2731 27.0969 29.8109 27.8075C28.3495 28.5182 26.6146 28.8735 24.6047 28.8735C21.4865 28.8735 18.9469 27.8922 16.9865 25.9297C15.0255 23.9679 14.0449 21.5099 14.0449 18.5571C14.0449 15.5317 15.0225 13.0197 16.9768 11.0197C18.9318 9.02117 21.3828 8.02192 24.3304 8.02192C27.4606 8.02192 30.0063 9.02117 31.9673 11.0197C33.9276 13.0197 34.9082 15.6591 34.9082 18.9402L34.8901 19.8885Z" fill="white"/>
<path d="M47.4193 12.6159C45.8768 12.6159 44.5972 13.1594 43.5776 14.2471C42.5572 15.3348 42.0485 16.7284 42.0485 18.43C42.0485 20.1429 42.5662 21.5529 43.6054 22.6579C44.643 23.7643 45.9196 24.3168 47.4366 24.3168C49.0025 24.3168 50.3016 23.7733 51.3332 22.6856C52.3648 21.5979 52.8818 20.1736 52.8818 18.4113C52.8818 16.6864 52.3648 15.2883 51.3332 14.2194C50.3016 13.1504 48.9972 12.6159 47.4193 12.6159ZM52.6631 8.53272H57.6492V28.3633H52.6631V26.2673C51.6886 27.1901 50.7126 27.8558 49.7335 28.2628C48.7545 28.6699 47.6921 28.8738 46.5492 28.8738C43.9826 28.8738 41.7623 27.8798 39.8891 25.8933C38.0152 23.9068 37.079 21.4375 37.079 18.484C37.079 15.4225 37.9851 12.9128 39.7974 10.957C41.6112 9.00124 43.812 8.02223 46.4035 8.02223C47.5951 8.02223 48.7154 8.24711 49.7598 8.69614C50.8065 9.14591 51.7735 9.82058 52.6631 10.7201V8.53272Z" fill="white"/>
<path d="M70.2484 12.6159C68.7059 12.6159 67.4255 13.1594 66.4067 14.2471C65.3863 15.3348 64.8769 16.7284 64.8769 18.43C64.8769 20.1429 65.3953 21.5529 66.4337 22.6579C67.4714 23.7643 68.7487 24.3168 70.2657 24.3168C71.8316 24.3168 73.1307 23.7733 74.1623 22.6856C75.1939 21.5979 75.7109 20.1736 75.7109 18.4113C75.7109 16.6864 75.1939 15.2883 74.1623 14.2194C73.1307 13.1504 71.8263 12.6159 70.2484 12.6159ZM75.4915 0.877558H80.4783V28.3633H75.4915V26.2673C74.5177 27.1901 73.5417 27.8558 72.5619 28.2628C71.5829 28.6699 70.5212 28.8738 69.3784 28.8738C66.8117 28.8738 64.5914 27.8798 62.7182 25.8933C60.8436 23.9068 59.9073 21.4375 59.9073 18.484C59.9073 15.4225 60.8135 12.9128 62.6266 10.957C64.4396 9.00124 66.6404 8.02223 69.2318 8.02223C70.4243 8.02223 71.5438 8.24712 72.589 8.69614C73.6356 9.14591 74.6026 9.82058 75.4915 10.7201V0.877558Z" fill="white"/>
<path d="M95.3094 26.413C96.731 26.413 98.0436 26.0636 99.2458 25.365C100.449 24.6663 101.406 23.6851 102.117 22.4212C102.828 21.1573 103.183 19.8208 103.183 18.4115C103.183 17.0022 102.825 15.6588 102.108 14.383C101.391 13.1079 100.428 12.1139 99.2187 11.404C98.0098 10.6918 96.7189 10.3373 95.3462 10.3373C93.9479 10.3373 92.621 10.6918 91.3632 11.404C90.1054 12.1139 89.1391 13.0711 88.4659 14.2743C87.7904 15.4767 87.4538 16.832 87.4538 18.3388C87.4538 20.6349 88.2097 22.5554 89.7222 24.0981C91.2355 25.6416 93.0981 26.413 95.3094 26.413ZM85.0787 28.3635V0.877752H87.6364V11.9407C88.7071 10.6289 89.9055 9.64761 91.2317 8.99769C92.5579 8.34776 94.011 8.02242 95.5934 8.02242C98.4043 8.02242 100.804 9.04042 102.793 11.0756C104.783 13.1109 105.777 15.5809 105.777 18.4842C105.777 21.3522 104.774 23.8005 102.766 25.8298C100.758 27.859 98.3434 28.8732 95.5205 28.8732C93.9021 28.8732 92.4361 28.5269 91.1227 27.8343C89.8086 27.1423 88.6462 26.1034 87.6364 24.7173V28.3635H85.0787Z" fill="#F2F2F2"/>
<path d="M118.9 10.5194C116.773 10.5194 114.945 11.3027 113.418 12.8709C111.89 14.4384 111.126 16.3335 111.126 18.5576C111.126 19.9909 111.475 21.3282 112.171 22.5666C112.868 23.8072 113.809 24.7637 114.995 25.4376C116.181 26.1123 117.482 26.4496 118.9 26.4496C120.318 26.4496 121.619 26.1123 122.805 25.4376C123.99 24.7637 124.931 23.8072 125.628 22.5666C126.325 21.3282 126.673 19.9909 126.673 18.5576C126.673 16.3335 125.906 14.4384 124.372 12.8709C122.838 11.3027 121.014 10.5194 118.9 10.5194ZM118.909 8.02237C121.971 8.02237 124.509 9.12881 126.522 11.3395C128.352 13.3567 129.268 15.745 129.268 18.5029C129.268 21.2727 128.3 23.694 126.367 25.766C124.433 27.8379 121.947 28.8732 118.909 28.8732C115.858 28.8732 113.367 27.8379 111.433 25.766C109.499 23.694 108.532 21.2727 108.532 18.5029C108.532 15.7562 109.447 13.3754 111.277 11.3582C113.29 9.13406 115.834 8.02237 118.909 8.02237Z" fill="#F2F2F2"/>
<path d="M130.798 8.53253H133.868L139.154 15.7874L144.385 8.53253H147.46L140.694 17.9006L148.318 28.3631H145.203L139.153 20.0348L133.138 28.3631H130.086L137.616 17.9186L130.798 8.53253Z" fill="#F2F2F2"/>
</svg>
